<svg width="16" height="16" viewBox="0 0 16 16" fill="none" xmlns="http://www.w3.org/2000/svg">
<g clip-path="url(#clip0_1_2)">
<rect width="16" height="16" fill="black"/>
<path d="M8 15.3333C6.34444 15.3333 4.93056 15.0972 3.75833 14.625C2.58611 14.1528 2 13.5 2 12.6667C2 12.3111 2.11111 11.9917 2.33333 11.7083C2.55556 11.425 2.86667 11.1722 3.26667 10.95L4.35 11.9167C4.08333 12.0056 3.84722 12.1194 3.64167 12.2583C3.43611 12.3972 3.33333 12.5333 3.33333 12.6667C3.33333 12.9556 3.78333 13.25 4.68333 13.55C5.58333 13.85 6.68889 14 8 14C9.31111 14 10.4167 13.85 11.3167 13.55C12.2167 13.25 12.6667 12.9556 12.6667 12.6667C12.6667 12.5333 12.5639 12.3972 12.3583 12.2583C12.1528 12.1194 11.9167 12.0056 11.65 11.9167L12.7333 10.95C13.1333 11.1722 13.4444 11.425 13.6667 11.7083C13.8889 11.9917 14 12.3111 14 12.6667C14 13.5 13.4139 14.1528 12.2417 14.625C11.0694 15.0972 9.65556 15.3333 8 15.3333ZM8 12.6667C7.75556 12.6667 7.51944 12.625 7.29167 12.5417C7.06389 12.4583 6.85556 12.3333 6.66667 12.1667L2.46667 8.45C2.32222 8.32778 2.20833 8.17778 2.125 8C2.04167 7.82222 2 7.63889 2 7.45V6.11667C2 5.92778 2.03611 5.74444 2.10833 5.56667C2.18056 5.38889 2.28889 5.23889 2.43333 5.11667L6.63333 1.2C6.82222 1.02222 7.03333 0.888889 7.26667 0.8C7.5 0.711111 7.74444 0.666667 8 0.666667C8.25556 0.666667 8.5 0.711111 8.73333 0.8C8.96667 0.888889 9.17778 1.02222 9.36667 1.2L13.5667 5.11667C13.7111 5.23889 13.8194 5.38889 13.8917 5.56667C13.9639 5.74444 14 5.92778 14 6.11667V7.45C14 7.63889 13.9583 7.82222 13.875 8C13.7917 8.17778 13.6778 8.32778 13.5333 8.45L9.33333 12.1667C9.14444 12.3333 8.93611 12.4583 8.70833 12.5417C8.48056 12.625 8.24444 12.6667 8 12.6667ZM7.93333 9.53333C8.08889 9.53333 8.23611 9.50833 8.375 9.45833C8.51389 9.40833 8.64445 9.32778 8.76667 9.21667L12.4667 5.93333L8.46667 2.16667C8.38889 2.11111 8.31111 2.06944 8.23333 2.04167C8.15556 2.01389 8.07222 2 7.98333 2C7.89444 2 7.81111 2.01389 7.73333 2.04167C7.65556 2.06944 7.58889 2.11111 7.53333 2.16667L3.46667 6L7.1 9.21667C7.22222 9.32778 7.35278 9.40833 7.49167 9.45833C7.63056 9.50833 7.77778 9.53333 7.93333 9.53333ZM6 6.83333C6.23333 6.83333 6.43056 6.75278 6.59167 6.59167C6.75278 6.43056 6.83333 6.23333 6.83333 6C6.83333 5.76667 6.75278 5.56944 6.59167 5.40833C6.43056 5.24722 6.23333 5.16667 6 5.16667C5.76667 5.16667 5.56944 5.24722 5.40833 5.40833C5.24722 5.56944 5.16667 5.76667 5.16667 6C5.16667 6.23333 5.24722 6.43056 5.40833 6.59167C5.56944 6.75278 5.76667 6.83333 6 6.83333ZM6.83333 7.73333C7.31111 7.96667 7.81389 8.04167 8.34167 7.95833C8.86944 7.875 9.33333 7.65556 9.73333 7.3C10.1111 6.97778 10.3583 6.57222 10.475 6.08333C10.5917 5.59444 10.5333 5.13333 10.3 4.7L6.83333 7.73333ZM8 4.83333C8.23333 4.83333 8.43056 4.75278 8.59167 4.59167C8.75278 4.43056 8.83333 4.23333 8.83333 4C8.83333 3.76667 8.75278 3.56944 8.59167 3.40833C8.43056 3.24722 8.23333 3.16667 8 3.16667C7.76667 3.16667 7.56944 3.24722 7.40833 3.40833C7.24722 3.56944 7.16667 3.76667 7.16667 4C7.16667 4.23333 7.24722 4.43056 7.40833 4.59167C7.56944 4.75278 7.76667 4.83333 8 4.83333Z" fill="white"/>
</g>
<defs>
<clipPath id="clip0_1_2">
<rect width="16" height="16" fill="white"/>
</clipPath>
</defs>
</svg>
